<?xml version="1.0" encoding="UTF-8" standalone="no"?>
<!-- Created with Inkscape (http://www.inkscape.org/) -->

<svg
   xmlns:dc="http://purl.org/dc/elements/1.1/"
   xmlns:cc="http://creativecommons.org/ns#"
   xmlns:rdf="http://www.w3.org/1999/02/22-rdf-syntax-ns#"
   xmlns:svg="http://www.w3.org/2000/svg"
   xmlns="http://www.w3.org/2000/svg"
   xmlns:sodipodi="http://sodipodi.sourceforge.net/DTD/sodipodi-0.dtd"
   xmlns:inkscape="http://www.inkscape.org/namespaces/inkscape"
   width="900"
   height="900"
   viewBox="0 0 238.125 238.12501"
   version="1.1"
   id="svg8"
   inkscape:version="0.92.3 (2405546, 2018-03-11)"
   sodipodi:docname="icon.svg"
   inkscape:export-filename="/home/nikolay/Desktop/oceean.github.io/icon.144.png"
   inkscape:export-xdpi="15.36"
   inkscape:export-ydpi="15.36">
  <defs
     id="defs2" />
  <sodipodi:namedview
     id="base"
     pagecolor="#ffffff"
     bordercolor="#666666"
     borderopacity="1.0"
     inkscape:pageopacity="0"
     inkscape:pageshadow="2"
     inkscape:zoom="0.88444444"
     inkscape:cx="473.17839"
     inkscape:cy="450"
     inkscape:document-units="px"
     inkscape:current-layer="layer1"
     showgrid="false"
     inkscape:window-width="1920"
     inkscape:window-height="1004"
     inkscape:window-x="0"
     inkscape:window-y="0"
     inkscape:window-maximized="1"
     inkscape:snap-global="true"
     inkscape:snap-bbox="true"
     inkscape:bbox-paths="true"
     inkscape:bbox-nodes="true"
     inkscape:snap-bbox-edge-midpoints="true"
     inkscape:snap-bbox-midpoints="true"
     inkscape:object-paths="true"
     inkscape:snap-intersection-paths="true"
     inkscape:snap-smooth-nodes="true"
     inkscape:snap-midpoints="true"
     inkscape:snap-center="true"
     inkscape:snap-object-midpoints="true"
     inkscape:snap-text-baseline="true"
     inkscape:snap-page="true"
     inkscape:snap-nodes="true"
     inkscape:snap-grids="true"
     inkscape:snap-others="true"
     units="px"
     showborder="true"
     inkscape:showpageshadow="false"
     borderlayer="true"
     inkscape:pagecheckerboard="false"
     fit-margin-top="0"
     fit-margin-left="0"
     fit-margin-right="0"
     fit-margin-bottom="0">
    <inkscape:grid
       type="xygrid"
       id="grid3725"
       spacingx="0.13229167"
       spacingy="0.13229167"
       originx="-5.2916659"
       originy="-179.91666" />
  </sodipodi:namedview>
  <metadata
     id="metadata5">
    <rdf:RDF>
      <cc:Work
         rdf:about="">
        <dc:format>image/svg+xml</dc:format>
        <dc:type
           rdf:resource="http://purl.org/dc/dcmitype/StillImage" />
        <dc:title />
      </cc:Work>
    </rdf:RDF>
  </metadata>
  <g
     inkscape:label="Layer 1"
     inkscape:groupmode="layer"
     id="layer1"
     transform="translate(-5.291666,121.04166)">
    <path
       style="fill:#bcecfc;fill-opacity:1;stroke:none;stroke-width:1.77274823;stroke-opacity:1"
       d="M 0 0 L 0 404.75195 C 274.96443 569.83422 549.92919 734.91722 824.89258 900 L 900 900 L 900 0 L 0 0 z "
       transform="matrix(0.26458334,0,0,0.26458334,5.291666,-121.04166)"
       id="path19" />
    <path
       style="fill:#a4e8fc;fill-opacity:1;stroke:none;stroke-width:1.77274823;stroke-opacity:1"
       d="M 0 0 L 0 707.94531 C 106.6298 771.96338 213.25901 835.98189 319.88867 900 L 868.25586 900 C 878.83738 881.13417 889.41847 862.26817 900 843.40234 L 900 171.32422 C 880.56373 142.07733 865.14657 104.67718 836.75391 90.037109 C 762.11005 114.63873 701.3005 78.622656 678.125 3.0273438 C 677.27479 1.9681776 676.39553 0.9697784 675.50195 0 L 0 0 z "
       transform="matrix(0.26458334,0,0,0.26458334,5.291666,-121.04166)"
       id="path16" />
    <path
       style="fill:#8ce4fc;fill-opacity:1;stroke:none;stroke-width:1.79943585;stroke-opacity:1"
       d="M 0 0 L 0 900 L 815.70703 900 C 843.80469 851.37957 871.90236 802.75912 900 754.13867 L 900 309.21094 C 891.95545 308.84682 882.9035 310.28672 872.57812 313.98828 C 783.51647 346.57986 778.01885 228.32049 720.08984 199.33008 C 643.18164 223.9317 580.52696 187.9156 556.64844 112.32031 C 509.90199 55.799528 398.05999 129.41903 378.04883 27.126953 C 375.54112 15.734053 371.77713 6.8775086 367.0293 0 L 0 0 z "
       transform="matrix(0.26458334,0,0,0.26458334,5.291666,-121.04166)"
       id="path2340" />
    <path
       style="fill:#74e0fc;fill-opacity:1;stroke:none;stroke-width:1.79943585;stroke-opacity:1"
       d="M 0 20.5 L 0 900 L 900 900 L 900 559.18945 C 841.69553 562.12152 795.95323 526.74724 776.34961 464.68555 C 729.60317 408.16477 617.76116 481.78424 597.75 379.49219 C 575.8295 279.90402 458.29095 373.58636 420.55664 297.57812 C 399.12135 220.36838 335.12861 204.276 264.82422 217.74805 C 200.84582 189.51216 196.66767 61.879626 99.542969 107.84766 C 43.528912 117.02999 26.666554 59.233139 0 20.5 z "
       transform="matrix(0.26458334,0,0,0.26458334,5.291666,-121.04166)"
       id="path14" />
    <g
       id="g27"
       style="fill:#00b2d8;fill-opacity:1"
       transform="matrix(1.5153851,0,0,1.5153851,-64.088334,1.0200204)">
      <path
         style="font-style:normal;font-variant:normal;font-weight:normal;font-stretch:normal;font-size:medium;line-height:1.25;font-family:Oswald;-inkscape-font-specification:Oswald;letter-spacing:0px;word-spacing:0px;fill:#00b2d8;fill-opacity:1;fill-rule:nonzero;stroke:none;stroke-width:0.80000001;stroke-miterlimit:4;stroke-dasharray:none;stroke-opacity:1"
         d="m 143.202,-28.437479 c 4.42288,-8e-6 7.73936,0.86151 9.95081,2.583822 2.27463,1.722328 3.76154,4.157284 4.45657,7.30498 0.75825,3.08828 1.13689,7.27372 1.13689,12.5594399 v 4.274674 l -9.95082,-7.350455 v -2.5342129 c 0,-3.504015 -0.37864,-5.997987 -1.13688,-7.482747 -0.69503,-1.544112 -2.21384,-2.319238 -4.55166,-2.319238 -1.64279,0 -2.90639,0.358095 -3.79098,1.070736 -0.82138,0.712688 -1.38734,1.900694 -1.70326,3.563606 -0.31592,1.603544 -0.47542,3.947983 -0.47542,7.0362629 v 0.665593 l -10.14098,7.350455 v -6.143294 c 0,-7.1268159 1.16791,-12.3232819 3.50573,-15.5897459 2.401,-3.325832 6.63432,-4.989876 12.7,-4.989876 z m -16.20573,26.7229159 z"
         id="path1228"
         inkscape:connector-curvature="0"
         sodipodi:nodetypes="cccsccscsccsccscccc" />
      <path
         sodipodi:nodetypes="cccsccscsccsccscccc"
         inkscape:connector-curvature="0"
         id="path18"
         d="m 105.49887,-28.437479 c -4.42288,-8e-6 -7.739366,0.86151 -9.950814,2.583822 -2.274631,1.722328 -3.761534,4.157284 -4.456573,7.30498 -0.758248,3.08828 -1.136883,7.27372 -1.136883,12.5594399 v 4.274674 l 9.950815,-7.350455 v -2.5342129 c 0,-3.504015 0.378645,-5.997987 1.136885,-7.482747 0.69503,-1.544112 2.21384,-2.319238 4.55166,-2.319238 1.64279,0 2.90639,0.358095 3.79098,1.070736 0.82137,0.712688 1.38733,1.900694 1.70325,3.563606 0.31592,1.603544 0.47543,3.947983 0.47543,7.0362629 v 0.665593 l 10.14098,7.350455 v -6.143294 c 0,-7.1268159 -1.16791,-12.3232819 -3.50573,-15.5897459 -2.401,-3.325832 -6.63432,-4.989876 -12.7,-4.989876 z m 16.20573,26.7229159 z"
         style="font-style:normal;font-variant:normal;font-weight:normal;font-stretch:normal;font-size:medium;line-height:1.25;font-family:Oswald;-inkscape-font-specification:Oswald;letter-spacing:0px;word-spacing:0px;fill:#00b2d8;fill-opacity:1;fill-rule:nonzero;stroke:none;stroke-width:0.80000001;stroke-miterlimit:4;stroke-dasharray:none;stroke-opacity:1" />
    </g>
    <path
       style="fill:#5cd8fc;fill-opacity:1;stroke:none;stroke-width:1.79943585;stroke-opacity:1"
       d="M 7.2480469 352.25 C 4.9087188 352.19732 2.4912387 352.29069 0 352.52539 L 0 900 L 882.9082 900 C 857.88216 869.99156 841.92454 822.85139 808.19336 805.9707 C 731.28515 830.57234 668.63048 794.55624 644.75195 718.96094 C 598.00551 662.44016 486.16351 736.05962 466.15234 633.76758 C 444.23184 534.17941 326.6933 627.86175 288.95898 551.85352 C 267.5237 474.64377 203.53095 458.55139 133.22656 472.02344 C 79.244787 448.19941 67.835993 353.61435 7.2480469 352.25 z "
       transform="matrix(0.26458334,0,0,0.26458334,5.291666,-121.04166)"
       id="path21" />
    <path
       style="fill:#3cd4fc;fill-opacity:1;stroke:none;stroke-width:1.8555392;stroke-opacity:1"
       d="M 0 630.25195 L 0 900 L 441.0332 900 C 433.18251 888.45821 426.68905 875.2774 421.75781 860.5957 C 372.05098 804.07494 253.12609 877.6944 231.84766 775.40234 C 208.53893 675.81418 83.557587 769.49652 43.433594 693.48828 C 34.778635 664.16988 19.594858 643.67287 0 630.25195 z "
       transform="matrix(0.26458334,0,0,0.26458334,5.291666,-121.04166)"
       id="path23" />
    <g
       id="g31"
       style="fill:#00bfe8;fill-opacity:1"
       transform="matrix(1.5153851,0,0,1.5153851,-64.088334,1.0200204)">
      <path
         sodipodi:nodetypes="cccscscsccscsccsccc"
         style="fill:#00bfe8;fill-rule:nonzero;stroke:none;stroke-width:2.12927651px;stroke-linecap:butt;stroke-linejoin:miter;stroke-opacity:1;fill-opacity:1"
         d="m 148.79545,-9.3600925 9.95082,7.350455 H 137.13725 V 8.5339089 c 0,3.1476801 0.47438,5.4331301 1.42214,6.8584901 1.01094,1.36596 2.58944,2.05053 4.73769,2.05053 2.14826,0 3.60325,-0.68456 4.36149,-2.05053 0.75824,-1.42536 1.13688,-3.5613 1.13688,-6.4120101 v -3.121254 h 9.85573 v 1.959574 c 0,5.4045101 -1.23172,9.5350801 -3.69589,12.3858001 -2.46417,2.85073 -6.38264,4.27468 -11.75329,4.27468 -4.23334,0 -7.51792,-0.74356 -9.85573,-2.22829 -2.33782,-1.54415 -3.98011,-3.79803 -4.92787,-6.76755 -0.94782,-2.96947 -1.42213,-6.8325801 -1.42213,-11.5837841 v -5.9092024 l 10.14098,-7.350455 z"
         id="path1230"
         inkscape:connector-curvature="0" />
      <path
         sodipodi:nodetypes="cccscscsccscsccsccc"
         id="path49"
         d="m 99.905415,-9.3600925 -9.950815,7.350455 h 21.60902 V 8.5339089 c 0,3.1476801 -0.47438,5.4331301 -1.42214,6.8584901 -1.01094,1.36596 -2.58944,2.05053 -4.73769,2.05053 -2.14826,0 -3.60325,-0.68456 -4.36149,-2.05053 -0.75824,-1.42536 -1.136885,-3.5613 -1.136885,-6.4120101 v -3.121254 h -9.855729 v 1.959574 c -2e-6,5.4045101 1.231723,9.5350801 3.695896,12.3858001 2.464163,2.85073 6.382638,4.27468 11.753288,4.27468 4.23334,0 7.51792,-0.74356 9.85573,-2.22829 2.33782,-1.54415 3.9801,-3.79803 4.92786,-6.76755 0.94782,-2.96947 1.42214,-6.8325801 1.42214,-11.5837841 v -5.9092024 l -10.14098,-7.350455 z"
         style="fill:#00bfe8;fill-rule:nonzero;stroke:none;stroke-width:2.12927651px;stroke-linecap:butt;stroke-linejoin:miter;stroke-opacity:1;fill-opacity:1"
         inkscape:connector-curvature="0" />
    </g>
  </g>
</svg>
