<?xml version="1.0" encoding="UTF-8" standalone="no"?>
<!-- Created with Inkscape (http://www.inkscape.org/) -->

<svg
   xmlns:dc="http://purl.org/dc/elements/1.1/"
   xmlns:cc="http://creativecommons.org/ns#"
   xmlns:rdf="http://www.w3.org/1999/02/22-rdf-syntax-ns#"
   xmlns:svg="http://www.w3.org/2000/svg"
   xmlns="http://www.w3.org/2000/svg"
   xmlns:sodipodi="http://sodipodi.sourceforge.net/DTD/sodipodi-0.dtd"
   xmlns:inkscape="http://www.inkscape.org/namespaces/inkscape"
   width="900"
   height="900"
   viewBox="0 0 238.125 238.12501"
   version="1.1"
   id="svg8"
   inkscape:version="0.92.3 (2405546, 2018-03-11)"
   sodipodi:docname="icon-s.svg"
   inkscape:export-filename="/home/nikolay/Desktop/oceean.github.io/icon.144.png"
   inkscape:export-xdpi="15.36"
   inkscape:export-ydpi="15.36">
  <defs
     id="defs2" />
  <sodipodi:namedview
     id="base"
     pagecolor="#ffffff"
     bordercolor="#666666"
     borderopacity="1.0"
     inkscape:pageopacity="0"
     inkscape:pageshadow="2"
     inkscape:zoom="0.89666667"
     inkscape:cx="451.11524"
     inkscape:cy="450"
     inkscape:document-units="px"
     inkscape:current-layer="layer1"
     showgrid="false"
     inkscape:window-width="1920"
     inkscape:window-height="1004"
     inkscape:window-x="0"
     inkscape:window-y="0"
     inkscape:window-maximized="1"
     inkscape:snap-global="true"
     inkscape:snap-bbox="true"
     inkscape:bbox-paths="true"
     inkscape:bbox-nodes="true"
     inkscape:snap-bbox-edge-midpoints="true"
     inkscape:snap-bbox-midpoints="true"
     inkscape:object-paths="true"
     inkscape:snap-intersection-paths="true"
     inkscape:snap-smooth-nodes="true"
     inkscape:snap-midpoints="true"
     inkscape:snap-center="true"
     inkscape:snap-object-midpoints="true"
     inkscape:snap-text-baseline="true"
     inkscape:snap-page="true"
     inkscape:snap-nodes="true"
     inkscape:snap-grids="true"
     inkscape:snap-others="true"
     units="px"
     showborder="true"
     inkscape:showpageshadow="false"
     borderlayer="true"
     inkscape:pagecheckerboard="false"
     fit-margin-top="0"
     fit-margin-left="0"
     fit-margin-right="0"
     fit-margin-bottom="0">
    <inkscape:grid
       type="xygrid"
       id="grid3725"
       spacingx="0.13229167"
       spacingy="0.13229167"
       originx="-5.2916659"
       originy="-179.91666" />
  </sodipodi:namedview>
  <metadata
     id="metadata5">
    <rdf:RDF>
      <cc:Work
         rdf:about="">
        <dc:format>image/svg+xml</dc:format>
        <dc:type
           rdf:resource="http://purl.org/dc/dcmitype/StillImage" />
        <dc:title></dc:title>
      </cc:Work>
    </rdf:RDF>
  </metadata>
  <g
     inkscape:label="Layer 1"
     inkscape:groupmode="layer"
     id="layer1"
     transform="translate(-5.291666,121.04166)">
    <path
       sodipodi:nodetypes="cccsccscsccsccscccc"
       inkscape:connector-curvature="0"
       id="path1228"
       d="m 183.8091,-85.424671 c 13.94908,-2.5e-5 24.40875,2.71707 31.38332,8.148977 7.17384,5.431957 11.86332,13.111434 14.05534,23.038783 2.3914,9.739959 3.58557,22.940193 3.58557,39.61054 V -1.1447069 L 201.44998,-24.326911 v -7.992517 c 0,-11.051124 -1.19417,-18.916728 -3.58554,-23.599433 -2.19202,-4.869891 -6.98212,-7.314519 -14.35524,-7.314519 -5.18111,0 -9.16631,1.129376 -11.95617,3.376936 -2.5905,2.247708 -4.37545,5.994497 -5.37182,11.239065 -0.99636,5.057331 -1.4994,12.451331 -1.4994,22.19129 v 2.099178 L 132.69872,-1.1447069 V -20.519711 c 0,-22.47688 3.68341,-38.865734 11.05653,-49.167659 7.57239,-10.489162 20.92363,-15.737301 40.05385,-15.737301 z m -51.11038,84.2799641 z"
       style="font-style:normal;font-variant:normal;font-weight:normal;font-stretch:normal;font-size:medium;line-height:1.25;font-family:Oswald;-inkscape-font-specification:Oswald;letter-spacing:0px;word-spacing:0px;fill:#0066ff;fill-opacity:1;fill-rule:nonzero;stroke:none;stroke-width:2.52307701;stroke-miterlimit:4;stroke-dasharray:none;stroke-opacity:1" />
    <path
       inkscape:connector-curvature="0"
       id="path1230"
       d="m 201.44998,-24.326911 31.38335,23.1822041 H 164.68181 V 31.177397 c 0,9.927298 1.49612,17.135256 4.48521,21.630622 3.18835,4.308027 8.1667,6.467056 14.94195,6.467056 6.77528,0 11.36409,-2.158997 13.75547,-6.467056 2.39137,-4.495366 3.58554,-11.231792 3.58554,-20.222493 v -9.843955 h 31.08346 v 6.180195 c 0,17.044993 -3.88466,30.072175 -11.65627,39.062907 -7.77162,8.990764 -20.12987,13.481683 -37.06807,13.481683 -13.3513,0 -23.71036,-2.345074 -31.08346,-7.027684 C 145.35252,69.568661 140.17299,62.46027 137.1839,53.094861 134.19462,43.72961 132.69872,31.545955 132.69872,16.561389 V -1.1447069 l 31.98309,-23.1822041 z"
       style="fill:#2affd5;fill-rule:nonzero;stroke:none;stroke-width:6.71541023px;stroke-linecap:butt;stroke-linejoin:miter;stroke-opacity:1" />
    <path
       style="font-style:normal;font-variant:normal;font-weight:normal;font-stretch:normal;font-size:medium;line-height:1.25;font-family:Oswald;-inkscape-font-specification:Oswald;letter-spacing:0px;word-spacing:0px;fill:#0066ff;fill-opacity:1;fill-rule:nonzero;stroke:none;stroke-width:2.52307701;stroke-miterlimit:4;stroke-dasharray:none;stroke-opacity:1"
       d="m 64.89923,-85.424671 c -13.949083,-2.5e-5 -24.40877,2.71707 -31.383336,8.148977 -7.173836,5.431957 -11.8633,13.111434 -14.055346,23.038783 -2.391397,9.739959 -3.585554,22.940193 -3.585554,39.61054 V -1.1447069 L 47.258333,-24.326911 v -7.992517 c 0,-11.051124 1.194189,-18.916728 3.585561,-23.599433 2.192017,-4.869891 6.98211,-7.314519 14.355235,-7.314519 5.181107,0 9.166307,1.129376 11.956167,3.376936 2.590475,2.247708 4.375426,5.994497 5.371789,11.239065 0.996363,5.057331 1.499433,12.451331 1.499433,22.19129 v 2.099178 L 116.00961,-1.1447069 V -20.519711 c 0,-22.47688 -3.68341,-38.865734 -11.05653,-49.167659 -7.572389,-10.489162 -20.923629,-15.737301 -40.05385,-15.737301 z m 51.11038,84.2799641 z"
       id="path18"
       inkscape:connector-curvature="0"
       sodipodi:nodetypes="cccsccscsccsccscccc" />
    <path
       inkscape:connector-curvature="0"
       style="fill:#2affd5;fill-rule:nonzero;stroke:none;stroke-width:6.71541023px;stroke-linecap:butt;stroke-linejoin:miter;stroke-opacity:1"
       d="M 47.258333,-24.326911 15.874994,-1.1447069 H 84.026518 V 31.177397 c 0,9.927298 -1.496122,17.135256 -4.485211,21.630622 -3.188349,4.308027 -8.166695,6.467056 -14.941945,6.467056 -6.775281,0 -11.364096,-2.158997 -13.755468,-6.467056 C 48.452522,48.312653 47.258333,41.576227 47.258333,32.585526 V 22.741571 H 16.174881 v 6.180195 c -6e-6,17.044993 3.884665,30.072175 11.656287,39.062907 7.771591,8.990764 20.129858,13.481683 37.068062,13.481683 13.351303,0 23.710362,-2.345074 31.083455,-7.027684 7.373125,-4.870011 12.552625,-11.978402 15.541715,-21.343811 2.98928,-9.365251 4.48521,-21.548906 4.48521,-36.533472 V -1.1447069 L 84.026518,-24.326911 Z"
       id="path49" />
  </g>
</svg>
